<svg width="32" height="32" viewBox="0 0 32 32" fill="none" xmlns="http://www.w3.org/2000/svg">
<path d="M12.787 6.1199C13.0967 5.80831 13.4787 5.57809 13.8988 5.44968C14.319 5.32128 14.7644 5.29868 15.1954 5.38388C15.6264 5.46909 16.0296 5.65947 16.3693 5.93809C16.709 6.21671 16.9746 6.57495 17.1425 6.98095C17.3104 7.38696 17.3753 7.82815 17.3316 8.26531C17.2879 8.70248 17.1368 9.12206 16.8919 9.48677C16.6469 9.85149 16.3156 10.15 15.9275 10.3558C15.5393 10.5617 15.1063 10.6684 14.667 10.6666H2.66699M16.787 25.8799C17.0967 26.1915 17.4787 26.4217 17.8988 26.5501C18.319 26.6785 18.7644 26.7011 19.1954 26.6159C19.6264 26.5307 20.0296 26.3403 20.3693 26.0617C20.709 25.7831 20.9746 25.4248 21.1425 25.0188C21.3104 24.6128 21.3753 24.1716 21.3316 23.7345C21.2879 23.2973 21.1368 22.8777 20.8919 22.513C20.6469 22.1483 20.3156 21.8498 19.9275 21.6439C19.5393 21.4381 19.1063 21.3314 18.667 21.3332H2.66699M23.6403 10.3066C24.0281 9.91974 24.5053 9.63445 25.0296 9.47591C25.5539 9.31738 26.1091 9.29048 26.6463 9.39761C27.1835 9.50474 27.686 9.74259 28.1093 10.0901C28.5327 10.4377 28.8639 10.8842 29.0736 11.3902C29.2834 11.8961 29.3652 12.446 29.3119 12.9912C29.2585 13.5363 29.0717 14.0599 28.7678 14.5156C28.464 14.9714 28.0525 15.3452 27.5698 15.6041C27.0871 15.863 26.5481 15.9989 26.0003 15.9999H2.66699" stroke="#1E1E1E" stroke-width="2" stroke-linecap="round" stroke-linejoin="round"/>
</svg>
